# xmcd CD database file
#
# Track frame offsets:
#	150
#	12295
#	26955
#
# Disc length: 590 seconds
#
# Revision: 0
# Processed by: cddbd v1.5.1PL0 Copyright (c) Steve Scherf et al.
# Submitted via: CDex 1.51
#
DISCID=1d024c03
DTITLE=PENPALS - Days gone by/California
DYEAR=2000
DGENRE=Rock
TTITLE0=Days gone by
TTITLE1=California
TTITLE2=Crazy Train
EXTD=YEAR: 2000
EXTT0=
EXTT1=
EXTT2=
PLAYORDER=
